<mxfile host="65bd71144e">
    <diagram name="PÃ¡gina-1" id="VI7XL7Q7ZIXTf2wmSfxb">
        <mxGraphModel dx="1626" dy="787" grid="1" gridSize="10" guides="1" tooltips="1" connect="1" arrows="1" fold="1" page="1" pageScale="1" pageWidth="827" pageHeight="1169" math="0" shadow="0">
            <root>
                <mxCell id="0"/>
                <mxCell id="1" parent="0"/>
                <mxCell id="R9cN1EyK2M06EUhOzFU1-1" value="" style="rounded=0;whiteSpace=wrap;html=1;" parent="1" vertex="1">
                    <mxGeometry x="210" y="30" width="740" height="1370" as="geometry"/>
                </mxCell>
                <mxCell id="R9cN1EyK2M06EUhOzFU1-2" value="Technician" style="shape=umlActor;verticalLabelPosition=bottom;verticalAlign=top;html=1;outlineConnect=0;" parent="1" vertex="1">
                    <mxGeometry x="40" y="520" width="60" height="110" as="geometry"/>
                </mxCell>
                <mxCell id="R9cN1EyK2M06EUhOzFU1-3" value="Login" style="ellipse;whiteSpace=wrap;html=1;" parent="1" vertex="1">
                    <mxGeometry x="354" y="120" width="120" height="80" as="geometry"/>
                </mxCell>
                <mxCell id="R9cN1EyK2M06EUhOzFU1-7" value="" style="endArrow=none;html=1;rounded=0;exitX=1;exitY=0.3333333333333333;exitDx=0;exitDy=0;exitPerimeter=0;entryX=0;entryY=0.5;entryDx=0;entryDy=0;" parent="1" source="R9cN1EyK2M06EUhOzFU1-2" target="R9cN1EyK2M06EUhOzFU1-3" edge="1">
                    <mxGeometry width="50" height="50" relative="1" as="geometry">
                        <mxPoint x="390" y="350" as="sourcePoint"/>
                        <mxPoint x="440" y="300" as="targetPoint"/>
                    </mxGeometry>
                </mxCell>
                <mxCell id="R9cN1EyK2M06EUhOzFU1-8" value="Password Verification" style="ellipse;whiteSpace=wrap;html=1;" parent="1" vertex="1">
                    <mxGeometry x="580" y="70" width="120" height="80" as="geometry"/>
                </mxCell>
                <mxCell id="R9cN1EyK2M06EUhOzFU1-10" value="" style="endArrow=open;html=1;rounded=0;exitX=1;exitY=0;exitDx=0;exitDy=0;entryX=0;entryY=0.5;entryDx=0;entryDy=0;dashed=1;dashPattern=12 12;endFill=0;" parent="1" source="R9cN1EyK2M06EUhOzFU1-3" target="R9cN1EyK2M06EUhOzFU1-8" edge="1">
                    <mxGeometry width="50" height="50" relative="1" as="geometry">
                        <mxPoint x="390" y="350" as="sourcePoint"/>
                        <mxPoint x="440" y="300" as="targetPoint"/>
                    </mxGeometry>
                </mxCell>
                <mxCell id="R9cN1EyK2M06EUhOzFU1-11" value="&amp;lt;&amp;lt;Includes&amp;gt;&amp;gt;" style="edgeLabel;html=1;align=center;verticalAlign=middle;resizable=0;points=[];rotation=-5;" parent="R9cN1EyK2M06EUhOzFU1-10" vertex="1" connectable="0">
                    <mxGeometry x="-0.3548" y="1" relative="1" as="geometry">
                        <mxPoint x="24" y="-4" as="offset"/>
                    </mxGeometry>
                </mxCell>
                <mxCell id="R9cN1EyK2M06EUhOzFU1-25" style="edgeStyle=orthogonalEdgeStyle;rounded=0;orthogonalLoop=1;jettySize=auto;html=1;exitX=0;exitY=0;exitDx=0;exitDy=0;entryX=1;entryY=1;entryDx=0;entryDy=0;dashed=1;dashPattern=12 12;endArrow=open;endFill=0;" parent="1" source="R9cN1EyK2M06EUhOzFU1-19" target="R9cN1EyK2M06EUhOzFU1-3" edge="1">
                    <mxGeometry relative="1" as="geometry">
                        <Array as="points">
                            <mxPoint x="598" y="188"/>
                        </Array>
                    </mxGeometry>
                </mxCell>
                <mxCell id="R9cN1EyK2M06EUhOzFU1-26" value="&amp;lt;&amp;lt;Extends&amp;gt;&amp;gt;" style="edgeLabel;html=1;align=center;verticalAlign=middle;resizable=0;points=[];" parent="R9cN1EyK2M06EUhOzFU1-25" vertex="1" connectable="0">
                    <mxGeometry x="0.2562" y="-2" relative="1" as="geometry">
                        <mxPoint x="18" as="offset"/>
                    </mxGeometry>
                </mxCell>
                <mxCell id="R9cN1EyK2M06EUhOzFU1-19" value="Login Error&amp;nbsp;" style="ellipse;whiteSpace=wrap;html=1;" parent="1" vertex="1">
                    <mxGeometry x="580" y="180" width="120" height="80" as="geometry"/>
                </mxCell>
                <mxCell id="R9cN1EyK2M06EUhOzFU1-27" value="Check Inventory" style="ellipse;whiteSpace=wrap;html=1;" parent="1" vertex="1">
                    <mxGeometry x="354" y="260" width="120" height="80" as="geometry"/>
                </mxCell>
                <mxCell id="R9cN1EyK2M06EUhOzFU1-29" value="" style="endArrow=none;html=1;rounded=0;exitX=1;exitY=0.3333333333333333;exitDx=0;exitDy=0;exitPerimeter=0;entryX=0;entryY=0.5;entryDx=0;entryDy=0;endFill=0;" parent="1" source="R9cN1EyK2M06EUhOzFU1-2" target="R9cN1EyK2M06EUhOzFU1-27" edge="1">
                    <mxGeometry width="50" height="50" relative="1" as="geometry">
                        <mxPoint x="390" y="350" as="sourcePoint"/>
                        <mxPoint x="380" y="270" as="targetPoint"/>
                    </mxGeometry>
                </mxCell>
                <mxCell id="R9cN1EyK2M06EUhOzFU1-34" value="Manage Inventory" style="ellipse;whiteSpace=wrap;html=1;" parent="1" vertex="1">
                    <mxGeometry x="354" y="440" width="120" height="80" as="geometry"/>
                </mxCell>
                <mxCell id="R9cN1EyK2M06EUhOzFU1-35" value="" style="endArrow=none;html=1;rounded=0;exitX=1;exitY=0.3333333333333333;exitDx=0;exitDy=0;exitPerimeter=0;entryX=0;entryY=0.5;entryDx=0;entryDy=0;" parent="1" source="R9cN1EyK2M06EUhOzFU1-2" target="R9cN1EyK2M06EUhOzFU1-34" edge="1">
                    <mxGeometry width="50" height="50" relative="1" as="geometry">
                        <mxPoint x="390" y="350" as="sourcePoint"/>
                        <mxPoint x="440" y="300" as="targetPoint"/>
                    </mxGeometry>
                </mxCell>
                <mxCell id="R9cN1EyK2M06EUhOzFU1-36" value="" style="endArrow=open;html=1;rounded=0;exitX=0.5;exitY=0;exitDx=0;exitDy=0;entryX=0.5;entryY=1;entryDx=0;entryDy=0;dashed=1;dashPattern=12 12;endFill=0;" parent="1" source="R9cN1EyK2M06EUhOzFU1-34" target="R9cN1EyK2M06EUhOzFU1-27" edge="1">
                    <mxGeometry width="50" height="50" relative="1" as="geometry">
                        <mxPoint x="390" y="350" as="sourcePoint"/>
                        <mxPoint x="440" y="300" as="targetPoint"/>
                    </mxGeometry>
                </mxCell>
                <mxCell id="R9cN1EyK2M06EUhOzFU1-37" value="&amp;lt;&amp;lt;Includes&amp;gt;&amp;gt;" style="edgeLabel;html=1;align=center;verticalAlign=middle;resizable=0;points=[];" parent="R9cN1EyK2M06EUhOzFU1-36" vertex="1" connectable="0">
                    <mxGeometry x="-0.224" y="-3" relative="1" as="geometry">
                        <mxPoint x="-4" y="-13" as="offset"/>
                    </mxGeometry>
                </mxCell>
                <mxCell id="R9cN1EyK2M06EUhOzFU1-38" value="Manage External Courses" style="ellipse;whiteSpace=wrap;html=1;" parent="1" vertex="1">
                    <mxGeometry x="354" y="585" width="120" height="80" as="geometry"/>
                </mxCell>
                <mxCell id="R9cN1EyK2M06EUhOzFU1-40" value="" style="endArrow=none;html=1;rounded=0;entryX=0;entryY=0.5;entryDx=0;entryDy=0;exitX=1;exitY=0.3333333333333333;exitDx=0;exitDy=0;exitPerimeter=0;" parent="1" source="R9cN1EyK2M06EUhOzFU1-2" target="R9cN1EyK2M06EUhOzFU1-38" edge="1">
                    <mxGeometry width="50" height="50" relative="1" as="geometry">
                        <mxPoint x="130" y="500" as="sourcePoint"/>
                        <mxPoint x="440" y="380" as="targetPoint"/>
                    </mxGeometry>
                </mxCell>
                <mxCell id="R9cN1EyK2M06EUhOzFU1-41" value="Add/Remove Clients &amp;amp;&amp;amp; Companies" style="ellipse;whiteSpace=wrap;html=1;" parent="1" vertex="1">
                    <mxGeometry x="580" y="586" width="120" height="80" as="geometry"/>
                </mxCell>
                <mxCell id="R9cN1EyK2M06EUhOzFU1-43" value="Manage Clothing" style="ellipse;whiteSpace=wrap;html=1;" parent="1" vertex="1">
                    <mxGeometry x="354" y="750" width="120" height="80" as="geometry"/>
                </mxCell>
                <mxCell id="R9cN1EyK2M06EUhOzFU1-44" value="Manage Maintenance" style="ellipse;whiteSpace=wrap;html=1;" parent="1" vertex="1">
                    <mxGeometry x="354" y="920" width="120" height="80" as="geometry"/>
                </mxCell>
                <mxCell id="R9cN1EyK2M06EUhOzFU1-46" value="" style="endArrow=none;html=1;rounded=0;exitX=1;exitY=0.3333333333333333;exitDx=0;exitDy=0;exitPerimeter=0;entryX=0;entryY=0.5;entryDx=0;entryDy=0;" parent="1" source="R9cN1EyK2M06EUhOzFU1-2" target="R9cN1EyK2M06EUhOzFU1-43" edge="1">
                    <mxGeometry width="50" height="50" relative="1" as="geometry">
                        <mxPoint x="280" y="980" as="sourcePoint"/>
                        <mxPoint x="330" y="930" as="targetPoint"/>
                    </mxGeometry>
                </mxCell>
                <mxCell id="R9cN1EyK2M06EUhOzFU1-47" value="" style="endArrow=none;html=1;rounded=0;exitX=1;exitY=0.3333333333333333;exitDx=0;exitDy=0;exitPerimeter=0;entryX=0;entryY=0.5;entryDx=0;entryDy=0;" parent="1" source="R9cN1EyK2M06EUhOzFU1-2" target="R9cN1EyK2M06EUhOzFU1-44" edge="1">
                    <mxGeometry width="50" height="50" relative="1" as="geometry">
                        <mxPoint x="280" y="930" as="sourcePoint"/>
                        <mxPoint x="330" y="880" as="targetPoint"/>
                    </mxGeometry>
                </mxCell>
                <mxCell id="R9cN1EyK2M06EUhOzFU1-48" value="Check Inventory" style="ellipse;whiteSpace=wrap;html=1;" parent="1" vertex="1">
                    <mxGeometry x="580" y="1000" width="120" height="80" as="geometry"/>
                </mxCell>
                <mxCell id="R9cN1EyK2M06EUhOzFU1-51" value="" style="endArrow=open;html=1;rounded=0;entryX=0;entryY=0;entryDx=0;entryDy=0;exitX=1;exitY=1;exitDx=0;exitDy=0;dashed=1;dashPattern=12 12;endFill=0;" parent="1" source="R9cN1EyK2M06EUhOzFU1-43" target="R9cN1EyK2M06EUhOzFU1-48" edge="1">
                    <mxGeometry width="50" height="50" relative="1" as="geometry">
                        <mxPoint x="420" y="960" as="sourcePoint"/>
                        <mxPoint x="470" y="910" as="targetPoint"/>
                    </mxGeometry>
                </mxCell>
                <mxCell id="R9cN1EyK2M06EUhOzFU1-52" value="&amp;lt;&amp;lt;Includes&amp;gt;&amp;gt;" style="edgeLabel;html=1;align=center;verticalAlign=middle;resizable=0;points=[];" parent="R9cN1EyK2M06EUhOzFU1-51" vertex="1" connectable="0">
                    <mxGeometry x="-0.1328" y="-1" relative="1" as="geometry">
                        <mxPoint x="15" y="11" as="offset"/>
                    </mxGeometry>
                </mxCell>
                <mxCell id="R9cN1EyK2M06EUhOzFU1-53" value="&amp;lt;&amp;lt;Includes&amp;gt;&amp;gt;" style="edgeLabel;html=1;align=center;verticalAlign=middle;resizable=0;points=[];" parent="1" vertex="1" connectable="0">
                    <mxGeometry x="527.0025272333867" y="998.0010371529432" as="geometry">
                        <mxPoint x="1" y="2" as="offset"/>
                    </mxGeometry>
                </mxCell>
                <mxCell id="R9cN1EyK2M06EUhOzFU1-54" value="Buy Material" style="ellipse;whiteSpace=wrap;html=1;" parent="1" vertex="1">
                    <mxGeometry x="803" y="1000" width="120" height="80" as="geometry"/>
                </mxCell>
                <mxCell id="R9cN1EyK2M06EUhOzFU1-55" value="" style="endArrow=open;html=1;rounded=0;exitX=0;exitY=0.5;exitDx=0;exitDy=0;entryX=1;entryY=0.5;entryDx=0;entryDy=0;dashed=1;dashPattern=12 12;endFill=0;" parent="1" source="R9cN1EyK2M06EUhOzFU1-54" target="R9cN1EyK2M06EUhOzFU1-48" edge="1">
                    <mxGeometry width="50" height="50" relative="1" as="geometry">
                        <mxPoint x="660" y="1000" as="sourcePoint"/>
                        <mxPoint x="710" y="950" as="targetPoint"/>
                    </mxGeometry>
                </mxCell>
                <mxCell id="R9cN1EyK2M06EUhOzFU1-56" value="&amp;lt;&amp;lt;Extends&amp;gt;&amp;gt;" style="edgeLabel;html=1;align=center;verticalAlign=middle;resizable=0;points=[];" parent="R9cN1EyK2M06EUhOzFU1-55" vertex="1" connectable="0">
                    <mxGeometry x="0.1718" relative="1" as="geometry">
                        <mxPoint x="11" y="-9" as="offset"/>
                    </mxGeometry>
                </mxCell>
                <mxCell id="R9cN1EyK2M06EUhOzFU1-58" value="" style="endArrow=open;html=1;rounded=0;entryX=1;entryY=0.5;entryDx=0;entryDy=0;exitX=0;exitY=0.5;exitDx=0;exitDy=0;dashed=1;dashPattern=12 12;endFill=0;" parent="1" source="R9cN1EyK2M06EUhOzFU1-41" target="R9cN1EyK2M06EUhOzFU1-38" edge="1">
                    <mxGeometry width="50" height="50" relative="1" as="geometry">
                        <mxPoint x="600" y="730" as="sourcePoint"/>
                        <mxPoint x="650" y="680" as="targetPoint"/>
                    </mxGeometry>
                </mxCell>
                <mxCell id="R9cN1EyK2M06EUhOzFU1-59" value="&amp;lt;&amp;lt;Extends&amp;gt;&amp;gt;" style="edgeLabel;html=1;align=center;verticalAlign=middle;resizable=0;points=[];" parent="R9cN1EyK2M06EUhOzFU1-58" vertex="1" connectable="0">
                    <mxGeometry x="0.3071" y="-2" relative="1" as="geometry">
                        <mxPoint x="18" y="-6" as="offset"/>
                    </mxGeometry>
                </mxCell>
                <mxCell id="R9cN1EyK2M06EUhOzFU1-60" value="Manage Students" style="ellipse;whiteSpace=wrap;html=1;" parent="1" vertex="1">
                    <mxGeometry x="354" y="1310" width="120" height="80" as="geometry"/>
                </mxCell>
                <mxCell id="R9cN1EyK2M06EUhOzFU1-61" value="" style="endArrow=none;html=1;rounded=0;exitX=1;exitY=0.3333333333333333;exitDx=0;exitDy=0;exitPerimeter=0;entryX=0;entryY=0.5;entryDx=0;entryDy=0;" parent="1" source="R9cN1EyK2M06EUhOzFU1-2" target="R9cN1EyK2M06EUhOzFU1-60" edge="1">
                    <mxGeometry width="50" height="50" relative="1" as="geometry">
                        <mxPoint x="530" y="740" as="sourcePoint"/>
                        <mxPoint x="580" y="690" as="targetPoint"/>
                    </mxGeometry>
                </mxCell>
                <mxCell id="R9cN1EyK2M06EUhOzFU1-62" value="Manage Lockers" style="ellipse;whiteSpace=wrap;html=1;" parent="1" vertex="1">
                    <mxGeometry x="580" y="1310" width="120" height="80" as="geometry"/>
                </mxCell>
                <mxCell id="R9cN1EyK2M06EUhOzFU1-63" value="" style="endArrow=open;html=1;rounded=0;exitX=0;exitY=0.5;exitDx=0;exitDy=0;entryX=1;entryY=0.5;entryDx=0;entryDy=0;dashed=1;dashPattern=12 12;endFill=0;" parent="1" source="R9cN1EyK2M06EUhOzFU1-62" target="R9cN1EyK2M06EUhOzFU1-60" edge="1">
                    <mxGeometry width="50" height="50" relative="1" as="geometry">
                        <mxPoint x="530" y="1201" as="sourcePoint"/>
                        <mxPoint x="580" y="1151" as="targetPoint"/>
                    </mxGeometry>
                </mxCell>
                <mxCell id="R9cN1EyK2M06EUhOzFU1-64" value="&amp;lt;&amp;lt;Extends&amp;gt;&amp;gt;" style="edgeLabel;html=1;align=center;verticalAlign=middle;resizable=0;points=[];" parent="R9cN1EyK2M06EUhOzFU1-63" vertex="1" connectable="0">
                    <mxGeometry x="0.2383" relative="1" as="geometry">
                        <mxPoint x="14" y="-9" as="offset"/>
                    </mxGeometry>
                </mxCell>
                <mxCell id="R9cN1EyK2M06EUhOzFU1-65" value="" style="rounded=0;whiteSpace=wrap;html=1;" parent="1" vertex="1">
                    <mxGeometry x="213" y="1450" width="740" height="1930" as="geometry"/>
                </mxCell>
                <mxCell id="R9cN1EyK2M06EUhOzFU1-66" value="Admin" style="shape=umlActor;verticalLabelPosition=bottom;verticalAlign=top;html=1;outlineConnect=0;" parent="1" vertex="1">
                    <mxGeometry x="30" y="2040" width="60" height="110" as="geometry"/>
                </mxCell>
                <mxCell id="R9cN1EyK2M06EUhOzFU1-67" value="Login" style="ellipse;whiteSpace=wrap;html=1;" parent="1" vertex="1">
                    <mxGeometry x="357" y="1540" width="120" height="80" as="geometry"/>
                </mxCell>
                <mxCell id="R9cN1EyK2M06EUhOzFU1-68" value="" style="endArrow=none;html=1;rounded=0;exitX=1;exitY=0.3333333333333333;exitDx=0;exitDy=0;exitPerimeter=0;entryX=0;entryY=0.5;entryDx=0;entryDy=0;" parent="1" source="R9cN1EyK2M06EUhOzFU1-66" target="R9cN1EyK2M06EUhOzFU1-67" edge="1">
                    <mxGeometry width="50" height="50" relative="1" as="geometry">
                        <mxPoint x="393" y="1770" as="sourcePoint"/>
                        <mxPoint x="443" y="1720" as="targetPoint"/>
                    </mxGeometry>
                </mxCell>
                <mxCell id="R9cN1EyK2M06EUhOzFU1-69" value="Password Verification" style="ellipse;whiteSpace=wrap;html=1;" parent="1" vertex="1">
                    <mxGeometry x="583" y="1490" width="120" height="80" as="geometry"/>
                </mxCell>
                <mxCell id="R9cN1EyK2M06EUhOzFU1-70" value="" style="endArrow=open;html=1;rounded=0;exitX=1;exitY=0;exitDx=0;exitDy=0;entryX=0;entryY=0.5;entryDx=0;entryDy=0;dashed=1;dashPattern=12 12;endFill=0;" parent="1" source="R9cN1EyK2M06EUhOzFU1-67" target="R9cN1EyK2M06EUhOzFU1-69" edge="1">
                    <mxGeometry width="50" height="50" relative="1" as="geometry">
                        <mxPoint x="393" y="1770" as="sourcePoint"/>
                        <mxPoint x="443" y="1720" as="targetPoint"/>
                    </mxGeometry>
                </mxCell>
                <mxCell id="R9cN1EyK2M06EUhOzFU1-71" value="&amp;lt;&amp;lt;Includes&amp;gt;&amp;gt;" style="edgeLabel;html=1;align=center;verticalAlign=middle;resizable=0;points=[];rotation=-5;" parent="R9cN1EyK2M06EUhOzFU1-70" vertex="1" connectable="0">
                    <mxGeometry x="-0.3548" y="1" relative="1" as="geometry">
                        <mxPoint x="24" y="-4" as="offset"/>
                    </mxGeometry>
                </mxCell>
                <mxCell id="R9cN1EyK2M06EUhOzFU1-72" style="edgeStyle=orthogonalEdgeStyle;rounded=0;orthogonalLoop=1;jettySize=auto;html=1;exitX=0;exitY=0;exitDx=0;exitDy=0;entryX=1;entryY=1;entryDx=0;entryDy=0;dashed=1;dashPattern=12 12;endArrow=open;endFill=0;" parent="1" source="R9cN1EyK2M06EUhOzFU1-74" target="R9cN1EyK2M06EUhOzFU1-67" edge="1">
                    <mxGeometry relative="1" as="geometry">
                        <Array as="points">
                            <mxPoint x="601" y="1608"/>
                        </Array>
                    </mxGeometry>
                </mxCell>
                <mxCell id="R9cN1EyK2M06EUhOzFU1-73" value="&amp;lt;&amp;lt;Extends&amp;gt;&amp;gt;" style="edgeLabel;html=1;align=center;verticalAlign=middle;resizable=0;points=[];" parent="R9cN1EyK2M06EUhOzFU1-72" vertex="1" connectable="0">
                    <mxGeometry x="0.2562" y="-2" relative="1" as="geometry">
                        <mxPoint x="18" as="offset"/>
                    </mxGeometry>
                </mxCell>
                <mxCell id="R9cN1EyK2M06EUhOzFU1-74" value="Login Error&amp;nbsp;" style="ellipse;whiteSpace=wrap;html=1;" parent="1" vertex="1">
                    <mxGeometry x="583" y="1600" width="120" height="80" as="geometry"/>
                </mxCell>
                <mxCell id="R9cN1EyK2M06EUhOzFU1-75" value="Check Inventory" style="ellipse;whiteSpace=wrap;html=1;" parent="1" vertex="1">
                    <mxGeometry x="363" y="1850" width="120" height="80" as="geometry"/>
                </mxCell>
                <mxCell id="R9cN1EyK2M06EUhOzFU1-76" value="" style="endArrow=none;html=1;rounded=0;exitX=1;exitY=0.3333333333333333;exitDx=0;exitDy=0;exitPerimeter=0;entryX=0;entryY=0.5;entryDx=0;entryDy=0;endFill=0;" parent="1" source="R9cN1EyK2M06EUhOzFU1-66" target="R9cN1EyK2M06EUhOzFU1-75" edge="1">
                    <mxGeometry width="50" height="50" relative="1" as="geometry">
                        <mxPoint x="393" y="1770" as="sourcePoint"/>
                        <mxPoint x="383" y="1690" as="targetPoint"/>
                    </mxGeometry>
                </mxCell>
                <mxCell id="R9cN1EyK2M06EUhOzFU1-77" value="Manage Inventory" style="ellipse;whiteSpace=wrap;html=1;" parent="1" vertex="1">
                    <mxGeometry x="363" y="2030" width="120" height="80" as="geometry"/>
                </mxCell>
                <mxCell id="R9cN1EyK2M06EUhOzFU1-78" value="" style="endArrow=none;html=1;rounded=0;exitX=1;exitY=0.3333333333333333;exitDx=0;exitDy=0;exitPerimeter=0;entryX=0;entryY=0;entryDx=0;entryDy=0;" parent="1" source="R9cN1EyK2M06EUhOzFU1-66" target="R9cN1EyK2M06EUhOzFU1-77" edge="1">
                    <mxGeometry width="50" height="50" relative="1" as="geometry">
                        <mxPoint x="393" y="1770" as="sourcePoint"/>
                        <mxPoint x="443" y="1720" as="targetPoint"/>
                    </mxGeometry>
                </mxCell>
                <mxCell id="R9cN1EyK2M06EUhOzFU1-79" value="" style="endArrow=open;html=1;rounded=0;exitX=0.5;exitY=0;exitDx=0;exitDy=0;entryX=0.5;entryY=1;entryDx=0;entryDy=0;dashed=1;dashPattern=12 12;endFill=0;" parent="1" source="R9cN1EyK2M06EUhOzFU1-77" target="R9cN1EyK2M06EUhOzFU1-75" edge="1">
                    <mxGeometry width="50" height="50" relative="1" as="geometry">
                        <mxPoint x="399" y="1940" as="sourcePoint"/>
                        <mxPoint x="449" y="1890" as="targetPoint"/>
                    </mxGeometry>
                </mxCell>
                <mxCell id="R9cN1EyK2M06EUhOzFU1-80" value="&amp;lt;&amp;lt;Includes&amp;gt;&amp;gt;" style="edgeLabel;html=1;align=center;verticalAlign=middle;resizable=0;points=[];" parent="R9cN1EyK2M06EUhOzFU1-79" vertex="1" connectable="0">
                    <mxGeometry x="-0.224" y="-3" relative="1" as="geometry">
                        <mxPoint x="-4" y="-13" as="offset"/>
                    </mxGeometry>
                </mxCell>
                <mxCell id="R9cN1EyK2M06EUhOzFU1-81" value="Manage External Courses" style="ellipse;whiteSpace=wrap;html=1;" parent="1" vertex="1">
                    <mxGeometry x="360" y="2308" width="120" height="80" as="geometry"/>
                </mxCell>
                <mxCell id="R9cN1EyK2M06EUhOzFU1-82" value="" style="endArrow=none;html=1;rounded=0;entryX=0;entryY=0.5;entryDx=0;entryDy=0;exitX=1;exitY=0.3333333333333333;exitDx=0;exitDy=0;exitPerimeter=0;" parent="1" source="R9cN1EyK2M06EUhOzFU1-66" target="R9cN1EyK2M06EUhOzFU1-81" edge="1">
                    <mxGeometry width="50" height="50" relative="1" as="geometry">
                        <mxPoint x="133" y="1920" as="sourcePoint"/>
                        <mxPoint x="443" y="1800" as="targetPoint"/>
                    </mxGeometry>
                </mxCell>
                <mxCell id="R9cN1EyK2M06EUhOzFU1-83" value="Add/Remove Clients &amp;amp;&amp;amp; Companies" style="ellipse;whiteSpace=wrap;html=1;" parent="1" vertex="1">
                    <mxGeometry x="586" y="2309" width="120" height="80" as="geometry"/>
                </mxCell>
                <mxCell id="R9cN1EyK2M06EUhOzFU1-84" value="Manage Clothing" style="ellipse;whiteSpace=wrap;html=1;" parent="1" vertex="1">
                    <mxGeometry x="358.5" y="2440" width="120" height="80" as="geometry"/>
                </mxCell>
                <mxCell id="R9cN1EyK2M06EUhOzFU1-86" value="Manage Maintenance" style="ellipse;whiteSpace=wrap;html=1;" parent="1" vertex="1">
                    <mxGeometry x="358.5" y="2610" width="120" height="80" as="geometry"/>
                </mxCell>
                <mxCell id="R9cN1EyK2M06EUhOzFU1-87" value="" style="endArrow=none;html=1;rounded=0;exitX=1;exitY=0.3333333333333333;exitDx=0;exitDy=0;exitPerimeter=0;entryX=0;entryY=0.5;entryDx=0;entryDy=0;" parent="1" source="R9cN1EyK2M06EUhOzFU1-66" target="R9cN1EyK2M06EUhOzFU1-84" edge="1">
                    <mxGeometry width="50" height="50" relative="1" as="geometry">
                        <mxPoint x="283" y="2400" as="sourcePoint"/>
                        <mxPoint x="333" y="2350" as="targetPoint"/>
                    </mxGeometry>
                </mxCell>
                <mxCell id="R9cN1EyK2M06EUhOzFU1-88" value="" style="endArrow=none;html=1;rounded=0;exitX=1;exitY=0.3333333333333333;exitDx=0;exitDy=0;exitPerimeter=0;entryX=0;entryY=0.5;entryDx=0;entryDy=0;" parent="1" source="R9cN1EyK2M06EUhOzFU1-66" target="R9cN1EyK2M06EUhOzFU1-86" edge="1">
                    <mxGeometry width="50" height="50" relative="1" as="geometry">
                        <mxPoint x="283" y="2350" as="sourcePoint"/>
                        <mxPoint x="333" y="2300" as="targetPoint"/>
                    </mxGeometry>
                </mxCell>
                <mxCell id="R9cN1EyK2M06EUhOzFU1-89" value="Check Inventory" style="ellipse;whiteSpace=wrap;html=1;" parent="1" vertex="1">
                    <mxGeometry x="584.5" y="2690" width="120" height="80" as="geometry"/>
                </mxCell>
                <mxCell id="R9cN1EyK2M06EUhOzFU1-90" value="" style="endArrow=open;html=1;rounded=0;entryX=0;entryY=0;entryDx=0;entryDy=0;exitX=1;exitY=1;exitDx=0;exitDy=0;dashed=1;dashPattern=12 12;endFill=0;" parent="1" source="R9cN1EyK2M06EUhOzFU1-84" target="R9cN1EyK2M06EUhOzFU1-89" edge="1">
                    <mxGeometry width="50" height="50" relative="1" as="geometry">
                        <mxPoint x="424.5" y="2650" as="sourcePoint"/>
                        <mxPoint x="474.5" y="2600" as="targetPoint"/>
                    </mxGeometry>
                </mxCell>
                <mxCell id="R9cN1EyK2M06EUhOzFU1-91" value="&amp;lt;&amp;lt;Includes&amp;gt;&amp;gt;" style="edgeLabel;html=1;align=center;verticalAlign=middle;resizable=0;points=[];" parent="R9cN1EyK2M06EUhOzFU1-90" vertex="1" connectable="0">
                    <mxGeometry x="-0.1328" y="-1" relative="1" as="geometry">
                        <mxPoint x="15" y="11" as="offset"/>
                    </mxGeometry>
                </mxCell>
                <mxCell id="R9cN1EyK2M06EUhOzFU1-92" value="&amp;lt;&amp;lt;Includes&amp;gt;&amp;gt;" style="edgeLabel;html=1;align=center;verticalAlign=middle;resizable=0;points=[];" parent="1" vertex="1" connectable="0">
                    <mxGeometry x="532.5025272333867" y="2688.0010371529434" as="geometry">
                        <mxPoint x="1" y="2" as="offset"/>
                    </mxGeometry>
                </mxCell>
                <mxCell id="R9cN1EyK2M06EUhOzFU1-93" value="Buy Material" style="ellipse;whiteSpace=wrap;html=1;" parent="1" vertex="1">
                    <mxGeometry x="807.5" y="2690" width="120" height="80" as="geometry"/>
                </mxCell>
                <mxCell id="R9cN1EyK2M06EUhOzFU1-94" value="" style="endArrow=open;html=1;rounded=0;exitX=0;exitY=0.5;exitDx=0;exitDy=0;entryX=1;entryY=0.5;entryDx=0;entryDy=0;dashed=1;dashPattern=12 12;endFill=0;" parent="1" source="R9cN1EyK2M06EUhOzFU1-93" target="R9cN1EyK2M06EUhOzFU1-89" edge="1">
                    <mxGeometry width="50" height="50" relative="1" as="geometry">
                        <mxPoint x="664.5" y="2690" as="sourcePoint"/>
                        <mxPoint x="714.5" y="2640" as="targetPoint"/>
                    </mxGeometry>
                </mxCell>
                <mxCell id="R9cN1EyK2M06EUhOzFU1-95" value="&amp;lt;&amp;lt;Extends&amp;gt;&amp;gt;" style="edgeLabel;html=1;align=center;verticalAlign=middle;resizable=0;points=[];" parent="R9cN1EyK2M06EUhOzFU1-94" vertex="1" connectable="0">
                    <mxGeometry x="0.1718" relative="1" as="geometry">
                        <mxPoint x="11" y="-9" as="offset"/>
                    </mxGeometry>
                </mxCell>
                <mxCell id="R9cN1EyK2M06EUhOzFU1-96" value="" style="endArrow=open;html=1;rounded=0;entryX=1;entryY=0.5;entryDx=0;entryDy=0;exitX=0;exitY=0.5;exitDx=0;exitDy=0;dashed=1;dashPattern=12 12;endFill=0;" parent="1" source="R9cN1EyK2M06EUhOzFU1-83" target="R9cN1EyK2M06EUhOzFU1-81" edge="1">
                    <mxGeometry width="50" height="50" relative="1" as="geometry">
                        <mxPoint x="606" y="2453" as="sourcePoint"/>
                        <mxPoint x="656" y="2403" as="targetPoint"/>
                    </mxGeometry>
                </mxCell>
                <mxCell id="R9cN1EyK2M06EUhOzFU1-97" value="&amp;lt;&amp;lt;Extends&amp;gt;&amp;gt;" style="edgeLabel;html=1;align=center;verticalAlign=middle;resizable=0;points=[];" parent="R9cN1EyK2M06EUhOzFU1-96" vertex="1" connectable="0">
                    <mxGeometry x="0.3071" y="-2" relative="1" as="geometry">
                        <mxPoint x="18" y="-6" as="offset"/>
                    </mxGeometry>
                </mxCell>
                <mxCell id="R9cN1EyK2M06EUhOzFU1-98" value="Manage Students" style="ellipse;whiteSpace=wrap;html=1;" parent="1" vertex="1">
                    <mxGeometry x="357" y="2930" width="120" height="80" as="geometry"/>
                </mxCell>
                <mxCell id="R9cN1EyK2M06EUhOzFU1-99" value="" style="endArrow=none;html=1;rounded=0;exitX=1;exitY=0.3333333333333333;exitDx=0;exitDy=0;exitPerimeter=0;entryX=0;entryY=0.5;entryDx=0;entryDy=0;" parent="1" source="R9cN1EyK2M06EUhOzFU1-66" target="R9cN1EyK2M06EUhOzFU1-98" edge="1">
                    <mxGeometry width="50" height="50" relative="1" as="geometry">
                        <mxPoint x="533" y="2160" as="sourcePoint"/>
                        <mxPoint x="583" y="2110" as="targetPoint"/>
                    </mxGeometry>
                </mxCell>
                <mxCell id="R9cN1EyK2M06EUhOzFU1-100" value="Manage Lockers" style="ellipse;whiteSpace=wrap;html=1;" parent="1" vertex="1">
                    <mxGeometry x="583" y="2930" width="120" height="80" as="geometry"/>
                </mxCell>
                <mxCell id="R9cN1EyK2M06EUhOzFU1-101" value="" style="endArrow=open;html=1;rounded=0;exitX=0;exitY=0.5;exitDx=0;exitDy=0;entryX=1;entryY=0.5;entryDx=0;entryDy=0;dashed=1;dashPattern=12 12;endFill=0;" parent="1" source="R9cN1EyK2M06EUhOzFU1-100" target="R9cN1EyK2M06EUhOzFU1-98" edge="1">
                    <mxGeometry width="50" height="50" relative="1" as="geometry">
                        <mxPoint x="533" y="2821" as="sourcePoint"/>
                        <mxPoint x="583" y="2771" as="targetPoint"/>
                    </mxGeometry>
                </mxCell>
                <mxCell id="R9cN1EyK2M06EUhOzFU1-102" value="&amp;lt;&amp;lt;Extends&amp;gt;&amp;gt;" style="edgeLabel;html=1;align=center;verticalAlign=middle;resizable=0;points=[];" parent="R9cN1EyK2M06EUhOzFU1-101" vertex="1" connectable="0">
                    <mxGeometry x="0.2383" relative="1" as="geometry">
                        <mxPoint x="14" y="-9" as="offset"/>
                    </mxGeometry>
                </mxCell>
                <mxCell id="R9cN1EyK2M06EUhOzFU1-103" value="Manage Users" style="ellipse;whiteSpace=wrap;html=1;" parent="1" vertex="1">
                    <mxGeometry x="354" y="3138" width="120" height="80" as="geometry"/>
                </mxCell>
                <mxCell id="R9cN1EyK2M06EUhOzFU1-104" value="" style="endArrow=none;html=1;rounded=0;exitX=0;exitY=0;exitDx=0;exitDy=0;entryX=1;entryY=0.3333333333333333;entryDx=0;entryDy=0;entryPerimeter=0;" parent="1" source="R9cN1EyK2M06EUhOzFU1-103" target="R9cN1EyK2M06EUhOzFU1-66" edge="1">
                    <mxGeometry width="50" height="50" relative="1" as="geometry">
                        <mxPoint x="510" y="2710" as="sourcePoint"/>
                        <mxPoint x="560" y="2660" as="targetPoint"/>
                    </mxGeometry>
                </mxCell>
                <mxCell id="R9cN1EyK2M06EUhOzFU1-105" value="Schedule Courses" style="ellipse;whiteSpace=wrap;html=1;" parent="1" vertex="1">
                    <mxGeometry x="360" y="2140" width="120" height="80" as="geometry"/>
                </mxCell>
                <mxCell id="R9cN1EyK2M06EUhOzFU1-106" value="" style="endArrow=none;html=1;rounded=0;exitX=1;exitY=0.3333333333333333;exitDx=0;exitDy=0;exitPerimeter=0;entryX=0;entryY=0.5;entryDx=0;entryDy=0;" parent="1" source="R9cN1EyK2M06EUhOzFU1-66" target="R9cN1EyK2M06EUhOzFU1-105" edge="1">
                    <mxGeometry width="50" height="50" relative="1" as="geometry">
                        <mxPoint x="370" y="2180" as="sourcePoint"/>
                        <mxPoint x="420" y="2130" as="targetPoint"/>
                    </mxGeometry>
                </mxCell>
                <mxCell id="R9cN1EyK2M06EUhOzFU1-107" value="Manage Technicians" style="ellipse;whiteSpace=wrap;html=1;" parent="1" vertex="1">
                    <mxGeometry x="580" y="3138" width="120" height="80" as="geometry"/>
                </mxCell>
                <mxCell id="R9cN1EyK2M06EUhOzFU1-108" value="" style="endArrow=open;html=1;rounded=0;exitX=0;exitY=0.5;exitDx=0;exitDy=0;entryX=1;entryY=0.5;entryDx=0;entryDy=0;dashed=1;dashPattern=12 12;endFill=0;" parent="1" source="R9cN1EyK2M06EUhOzFU1-107" target="R9cN1EyK2M06EUhOzFU1-103" edge="1">
                    <mxGeometry width="50" height="50" relative="1" as="geometry">
                        <mxPoint x="450" y="3338" as="sourcePoint"/>
                        <mxPoint x="500" y="3288" as="targetPoint"/>
                    </mxGeometry>
                </mxCell>
                <mxCell id="R9cN1EyK2M06EUhOzFU1-109" value="&amp;lt;&amp;lt;Extends&amp;gt;&amp;gt;" style="edgeLabel;html=1;align=center;verticalAlign=middle;resizable=0;points=[];" parent="R9cN1EyK2M06EUhOzFU1-108" vertex="1" connectable="0">
                    <mxGeometry x="0.4319" y="-1" relative="1" as="geometry">
                        <mxPoint x="22" y="-7" as="offset"/>
                    </mxGeometry>
                </mxCell>
                <mxCell id="R9cN1EyK2M06EUhOzFU1-110" value="Manage Tickets" style="ellipse;whiteSpace=wrap;html=1;" parent="1" vertex="1">
                    <mxGeometry x="354" y="3288" width="120" height="80" as="geometry"/>
                </mxCell>
                <mxCell id="R9cN1EyK2M06EUhOzFU1-111" value="" style="endArrow=none;html=1;rounded=0;exitX=0;exitY=0.5;exitDx=0;exitDy=0;entryX=1;entryY=0.3333333333333333;entryDx=0;entryDy=0;entryPerimeter=0;" parent="1" source="R9cN1EyK2M06EUhOzFU1-110" target="R9cN1EyK2M06EUhOzFU1-66" edge="1">
                    <mxGeometry width="50" height="50" relative="1" as="geometry">
                        <mxPoint x="450" y="3190" as="sourcePoint"/>
                        <mxPoint x="500" y="3140" as="targetPoint"/>
                    </mxGeometry>
                </mxCell>
                <mxCell id="R9cN1EyK2M06EUhOzFU1-112" value="Check Inventory" style="ellipse;whiteSpace=wrap;html=1;" parent="1" vertex="1">
                    <mxGeometry x="583" y="3288" width="120" height="80" as="geometry"/>
                </mxCell>
                <mxCell id="R9cN1EyK2M06EUhOzFU1-115" value="Check Inventory" style="ellipse;whiteSpace=wrap;html=1;" parent="1" vertex="1">
                    <mxGeometry x="583" y="2140" width="120" height="80" as="geometry"/>
                </mxCell>
                <mxCell id="R9cN1EyK2M06EUhOzFU1-116" value="" style="endArrow=open;html=1;rounded=0;exitX=1;exitY=0;exitDx=0;exitDy=0;entryX=0;entryY=0.5;entryDx=0;entryDy=0;dashed=1;dashPattern=12 12;endFill=0;" parent="1" source="R9cN1EyK2M06EUhOzFU1-81" target="R9cN1EyK2M06EUhOzFU1-115" edge="1">
                    <mxGeometry width="50" height="50" relative="1" as="geometry">
                        <mxPoint x="563" y="2390" as="sourcePoint"/>
                        <mxPoint x="613" y="2340" as="targetPoint"/>
                    </mxGeometry>
                </mxCell>
                <mxCell id="R9cN1EyK2M06EUhOzFU1-117" value="&amp;lt;&amp;lt;Includes&amp;gt;&amp;gt;" style="edgeLabel;html=1;align=center;verticalAlign=middle;resizable=0;points=[];" parent="R9cN1EyK2M06EUhOzFU1-116" vertex="1" connectable="0">
                    <mxGeometry x="-0.1673" y="2" relative="1" as="geometry">
                        <mxPoint as="offset"/>
                    </mxGeometry>
                </mxCell>
                <mxCell id="R9cN1EyK2M06EUhOzFU1-118" value="" style="endArrow=open;html=1;rounded=0;exitX=1;exitY=0.5;exitDx=0;exitDy=0;entryX=0;entryY=0.5;entryDx=0;entryDy=0;dashed=1;dashPattern=12 12;endFill=0;" parent="1" source="R9cN1EyK2M06EUhOzFU1-110" target="R9cN1EyK2M06EUhOzFU1-112" edge="1">
                    <mxGeometry width="50" height="50" relative="1" as="geometry">
                        <mxPoint x="560" y="3388" as="sourcePoint"/>
                        <mxPoint x="610" y="3338" as="targetPoint"/>
                    </mxGeometry>
                </mxCell>
                <mxCell id="R9cN1EyK2M06EUhOzFU1-119" value="&amp;lt;&amp;lt;Includes&amp;gt;&amp;gt;" style="edgeLabel;html=1;align=center;verticalAlign=middle;resizable=0;points=[];" parent="R9cN1EyK2M06EUhOzFU1-118" vertex="1" connectable="0">
                    <mxGeometry x="-0.2538" y="-2" relative="1" as="geometry">
                        <mxPoint x="8" y="-13" as="offset"/>
                    </mxGeometry>
                </mxCell>
                <mxCell id="R9cN1EyK2M06EUhOzFU1-120" value="Check Inventory" style="ellipse;whiteSpace=wrap;html=1;" parent="1" vertex="1">
                    <mxGeometry x="583" y="440" width="120" height="80" as="geometry"/>
                </mxCell>
                <mxCell id="R9cN1EyK2M06EUhOzFU1-122" value="" style="endArrow=open;html=1;rounded=0;exitX=1;exitY=0;exitDx=0;exitDy=0;entryX=0;entryY=0.5;entryDx=0;entryDy=0;dashed=1;dashPattern=12 12;endFill=0;" parent="1" source="R9cN1EyK2M06EUhOzFU1-38" target="R9cN1EyK2M06EUhOzFU1-120" edge="1">
                    <mxGeometry width="50" height="50" relative="1" as="geometry">
                        <mxPoint x="560" y="540" as="sourcePoint"/>
                        <mxPoint x="610" y="490" as="targetPoint"/>
                    </mxGeometry>
                </mxCell>
                <mxCell id="R9cN1EyK2M06EUhOzFU1-123" value="Includes" style="edgeLabel;html=1;align=center;verticalAlign=middle;resizable=0;points=[];" parent="R9cN1EyK2M06EUhOzFU1-122" vertex="1" connectable="0">
                    <mxGeometry x="-0.1487" y="2" relative="1" as="geometry">
                        <mxPoint x="9" y="-6" as="offset"/>
                    </mxGeometry>
                </mxCell>
                <mxCell id="R9cN1EyK2M06EUhOzFU1-124" value="" style="endArrow=open;html=1;rounded=0;exitX=1;exitY=0.5;exitDx=0;exitDy=0;entryX=0;entryY=0.5;entryDx=0;entryDy=0;dashed=1;dashPattern=12 12;endFill=0;" parent="1" source="R9cN1EyK2M06EUhOzFU1-86" target="R9cN1EyK2M06EUhOzFU1-89" edge="1">
                    <mxGeometry width="50" height="50" relative="1" as="geometry">
                        <mxPoint x="461.5" y="2757" as="sourcePoint"/>
                        <mxPoint x="511.5" y="2707" as="targetPoint"/>
                    </mxGeometry>
                </mxCell>
                <mxCell id="R9cN1EyK2M06EUhOzFU1-125" value="" style="rounded=0;whiteSpace=wrap;html=1;" parent="1" vertex="1">
                    <mxGeometry x="213" y="3440" width="747" height="490" as="geometry"/>
                </mxCell>
                <mxCell id="R9cN1EyK2M06EUhOzFU1-127" value="Login" style="ellipse;whiteSpace=wrap;html=1;" parent="1" vertex="1">
                    <mxGeometry x="357" y="3510" width="120" height="80" as="geometry"/>
                </mxCell>
                <mxCell id="R9cN1EyK2M06EUhOzFU1-128" value="Password Verification" style="ellipse;whiteSpace=wrap;html=1;" parent="1" vertex="1">
                    <mxGeometry x="583" y="3460" width="120" height="80" as="geometry"/>
                </mxCell>
                <mxCell id="R9cN1EyK2M06EUhOzFU1-129" value="" style="endArrow=open;html=1;rounded=0;exitX=1;exitY=0;exitDx=0;exitDy=0;entryX=0;entryY=0.5;entryDx=0;entryDy=0;dashed=1;dashPattern=12 12;endFill=0;" parent="1" source="R9cN1EyK2M06EUhOzFU1-127" target="R9cN1EyK2M06EUhOzFU1-128" edge="1">
                    <mxGeometry width="50" height="50" relative="1" as="geometry">
                        <mxPoint x="393" y="3740" as="sourcePoint"/>
                        <mxPoint x="443" y="3690" as="targetPoint"/>
                    </mxGeometry>
                </mxCell>
                <mxCell id="R9cN1EyK2M06EUhOzFU1-130" value="&amp;lt;&amp;lt;Includes&amp;gt;&amp;gt;" style="edgeLabel;html=1;align=center;verticalAlign=middle;resizable=0;points=[];rotation=-5;" parent="R9cN1EyK2M06EUhOzFU1-129" vertex="1" connectable="0">
                    <mxGeometry x="-0.3548" y="1" relative="1" as="geometry">
                        <mxPoint x="24" y="-4" as="offset"/>
                    </mxGeometry>
                </mxCell>
                <mxCell id="R9cN1EyK2M06EUhOzFU1-131" style="edgeStyle=orthogonalEdgeStyle;rounded=0;orthogonalLoop=1;jettySize=auto;html=1;exitX=0;exitY=0;exitDx=0;exitDy=0;entryX=1;entryY=1;entryDx=0;entryDy=0;dashed=1;dashPattern=12 12;endArrow=open;endFill=0;" parent="1" source="R9cN1EyK2M06EUhOzFU1-133" target="R9cN1EyK2M06EUhOzFU1-127" edge="1">
                    <mxGeometry relative="1" as="geometry">
                        <Array as="points">
                            <mxPoint x="601" y="3578"/>
                        </Array>
                    </mxGeometry>
                </mxCell>
                <mxCell id="R9cN1EyK2M06EUhOzFU1-132" value="&amp;lt;&amp;lt;Extends&amp;gt;&amp;gt;" style="edgeLabel;html=1;align=center;verticalAlign=middle;resizable=0;points=[];" parent="R9cN1EyK2M06EUhOzFU1-131" vertex="1" connectable="0">
                    <mxGeometry x="0.2562" y="-2" relative="1" as="geometry">
                        <mxPoint x="18" as="offset"/>
                    </mxGeometry>
                </mxCell>
                <mxCell id="R9cN1EyK2M06EUhOzFU1-133" value="Login Error&amp;nbsp;" style="ellipse;whiteSpace=wrap;html=1;" parent="1" vertex="1">
                    <mxGeometry x="583" y="3570" width="120" height="80" as="geometry"/>
                </mxCell>
                <mxCell id="R9cN1EyK2M06EUhOzFU1-135" value="User" style="shape=umlActor;verticalLabelPosition=bottom;verticalAlign=top;html=1;outlineConnect=0;" parent="1" vertex="1">
                    <mxGeometry x="40" y="3610" width="60" height="110" as="geometry"/>
                </mxCell>
                <mxCell id="R9cN1EyK2M06EUhOzFU1-138" value="" style="endArrow=none;html=1;rounded=0;exitX=1;exitY=0.3333333333333333;exitDx=0;exitDy=0;exitPerimeter=0;entryX=0;entryY=0.5;entryDx=0;entryDy=0;" parent="1" source="R9cN1EyK2M06EUhOzFU1-135" target="R9cN1EyK2M06EUhOzFU1-127" edge="1">
                    <mxGeometry width="50" height="50" relative="1" as="geometry">
                        <mxPoint x="230" y="3690" as="sourcePoint"/>
                        <mxPoint x="280" y="3640" as="targetPoint"/>
                    </mxGeometry>
                </mxCell>
                <mxCell id="R9cN1EyK2M06EUhOzFU1-139" value="Submit Ticket" style="ellipse;whiteSpace=wrap;html=1;" parent="1" vertex="1">
                    <mxGeometry x="357" y="3730" width="120" height="80" as="geometry"/>
                </mxCell>
                <mxCell id="R9cN1EyK2M06EUhOzFU1-140" value="" style="endArrow=none;html=1;rounded=0;exitX=1;exitY=0.3333333333333333;exitDx=0;exitDy=0;exitPerimeter=0;entryX=0;entryY=0.5;entryDx=0;entryDy=0;" parent="1" source="R9cN1EyK2M06EUhOzFU1-135" target="R9cN1EyK2M06EUhOzFU1-139" edge="1">
                    <mxGeometry width="50" height="50" relative="1" as="geometry">
                        <mxPoint x="320" y="3720" as="sourcePoint"/>
                        <mxPoint x="370" y="3670" as="targetPoint"/>
                    </mxGeometry>
                </mxCell>
                <mxCell id="R9cN1EyK2M06EUhOzFU1-141" value="" style="endArrow=open;html=1;rounded=0;exitX=1;exitY=0.5;exitDx=0;exitDy=0;entryX=0;entryY=0.5;entryDx=0;entryDy=0;endFill=0;dashed=1;dashPattern=12 12;" parent="1" source="R9cN1EyK2M06EUhOzFU1-44" target="R9cN1EyK2M06EUhOzFU1-48" edge="1">
                    <mxGeometry width="50" height="50" relative="1" as="geometry">
                        <mxPoint x="510" y="1100" as="sourcePoint"/>
                        <mxPoint x="560" y="1050" as="targetPoint"/>
                    </mxGeometry>
                </mxCell>
                <mxCell id="R9cN1EyK2M06EUhOzFU1-142" value="Manage Ticket" style="ellipse;whiteSpace=wrap;html=1;" parent="1" vertex="1">
                    <mxGeometry x="357" y="1110" width="120" height="80" as="geometry"/>
                </mxCell>
                <mxCell id="R9cN1EyK2M06EUhOzFU1-143" value="" style="endArrow=open;html=1;rounded=0;exitX=0.5;exitY=1;exitDx=0;exitDy=0;entryX=0.5;entryY=0;entryDx=0;entryDy=0;endFill=0;dashed=1;dashPattern=12 12;" parent="1" source="R9cN1EyK2M06EUhOzFU1-44" target="R9cN1EyK2M06EUhOzFU1-142" edge="1">
                    <mxGeometry width="50" height="50" relative="1" as="geometry">
                        <mxPoint x="560" y="1200" as="sourcePoint"/>
                        <mxPoint x="610" y="1150" as="targetPoint"/>
                    </mxGeometry>
                </mxCell>
                <mxCell id="R9cN1EyK2M06EUhOzFU1-144" value="&amp;lt;&amp;lt;Includes&amp;gt;&amp;gt;" style="edgeLabel;html=1;align=center;verticalAlign=middle;resizable=0;points=[];" parent="1" vertex="1" connectable="0">
                    <mxGeometry x="415.0025272333867" y="1043.0010371529434" as="geometry">
                        <mxPoint x="1" y="2" as="offset"/>
                    </mxGeometry>
                </mxCell>
                <mxCell id="R9cN1EyK2M06EUhOzFU1-145" value="Manage Ticket" style="ellipse;whiteSpace=wrap;html=1;" parent="1" vertex="1">
                    <mxGeometry x="358.5" y="2807" width="120" height="80" as="geometry"/>
                </mxCell>
                <mxCell id="R9cN1EyK2M06EUhOzFU1-147" value="" style="endArrow=open;html=1;rounded=0;exitX=0.5;exitY=1;exitDx=0;exitDy=0;entryX=0.5;entryY=0;entryDx=0;entryDy=0;endFill=0;dashed=1;dashPattern=12 12;" parent="1" source="R9cN1EyK2M06EUhOzFU1-86" target="R9cN1EyK2M06EUhOzFU1-145" edge="1">
                    <mxGeometry width="50" height="50" relative="1" as="geometry">
                        <mxPoint x="391.5" y="2857" as="sourcePoint"/>
                        <mxPoint x="441.5" y="2807" as="targetPoint"/>
                    </mxGeometry>
                </mxCell>
                <mxCell id="R9cN1EyK2M06EUhOzFU1-148" value="&amp;lt;&amp;lt;Includes&amp;gt;&amp;gt;" style="edgeLabel;html=1;align=center;verticalAlign=middle;resizable=0;points=[];" parent="1" vertex="1" connectable="0">
                    <mxGeometry x="417.5025272333867" y="2731.0010371529434" as="geometry">
                        <mxPoint x="1" y="2" as="offset"/>
                    </mxGeometry>
                </mxCell>
                <mxCell id="2" value="Check dashboard" style="ellipse;whiteSpace=wrap;html=1;" vertex="1" parent="1">
                    <mxGeometry x="363" y="1690" width="120" height="80" as="geometry"/>
                </mxCell>
                <mxCell id="3" value="" style="endArrow=none;html=1;rounded=0;exitX=1;exitY=0.3333333333333333;exitDx=0;exitDy=0;exitPerimeter=0;entryX=0;entryY=0.5;entryDx=0;entryDy=0;endFill=0;" edge="1" parent="1" source="R9cN1EyK2M06EUhOzFU1-66" target="2">
                    <mxGeometry width="50" height="50" relative="1" as="geometry">
                        <mxPoint x="160" y="1983.3366666666666" as="sourcePoint"/>
                        <mxPoint x="433" y="1796.67" as="targetPoint"/>
                    </mxGeometry>
                </mxCell>
            </root>
        </mxGraphModel>
    </diagram>
</mxfile>